HIERARCHY
ROOT Hips
{
	OFFSET 54.806099 -7.517716 96.100800
	CHANNELS 6 Xposition Yposition Zposition Xrotation Yrotation Zrotation
	JOINT spine
	{
		OFFSET 0.000000 -0.467660 8.132492
		CHANNELS 3 Xrotation Yrotation Zrotation
		JOINT spine1
		{
			OFFSET 0.000000 -0.000001 10.349800
			CHANNELS 3 Xrotation Yrotation Zrotation
			JOINT spine2
			{
				OFFSET 0.000000 -0.000002 9.916992
				CHANNELS 3 Xrotation Yrotation Zrotation
				JOINT Neck
				{
					OFFSET 0.000000 -1.213904 25.461006
					CHANNELS 3 Xrotation Yrotation Zrotation
					JOINT Head
					{
						OFFSET 0.000000 -0.000001 7.692444
						CHANNELS 3 Xrotation Yrotation Zrotation
						End Site
						{
							OFFSET 0.000000 6.140627 18.619995
						}
					}
				}
				JOINT RightShoulder
				{
					OFFSET -4.175751 0.581443 10.709602
					CHANNELS 3 Xrotation Yrotation Zrotation
					JOINT RightArm
					{
						OFFSET 0.000000 -0.000002 14.046600
						CHANNELS 3 Xrotation Yrotation Zrotation
						JOINT RightArmRoll
						{
							OFFSET 0.000000 -0.000001 7.090973
							CHANNELS 3 Xrotation Yrotation Zrotation
							JOINT RightForeArm
							{
								OFFSET 0.000000 -0.000003 20.653503
								CHANNELS 3 Xrotation Yrotation Zrotation
								JOINT RightForeArmRoll
								{
									OFFSET 0.000000 -0.000001 7.957184
									CHANNELS 3 Xrotation Yrotation Zrotation
									JOINT RightHand
									{
										OFFSET 0.000000 -0.000003 15.968292
										CHANNELS 3 Xrotation Yrotation Zrotation
										End Site
										{
											OFFSET 0.000000 0.000000 0.100006
										}
									}
								}
							}
						}
					}
				}
				JOINT LeftShoulder
				{
					OFFSET 4.175751 0.581443 10.709602
					CHANNELS 3 Xrotation Yrotation Zrotation
					JOINT LeftArm
					{
						OFFSET 0.000000 -0.000002 14.046600
						CHANNELS 3 Xrotation Yrotation Zrotation
						JOINT LeftArmRoll
						{
							OFFSET 0.000000 -0.000001 7.090973
							CHANNELS 3 Xrotation Yrotation Zrotation
							JOINT LeftForeArm
							{
								OFFSET 0.000000 -0.000003 20.653503
								CHANNELS 3 Xrotation Yrotation Zrotation
								JOINT LeftForeArmRoll
								{
									OFFSET 0.000000 -0.000001 7.957184
									CHANNELS 3 Xrotation Yrotation Zrotation
									JOINT LeftHand
									{
										OFFSET 0.000000 -0.000003 15.968292
										CHANNELS 3 Xrotation Yrotation Zrotation
										End Site
										{
											OFFSET 0.000000 0.000000 0.100006
										}
									}
								}
							}
						}
					}
				}
			}
		}
	}
	JOINT RightUpLeg
	{
		OFFSET -7.208340 1.108840 -1.321823
		CHANNELS 3 Xrotation Yrotation Zrotation
		JOINT RightUpLegRoll
		{
			OFFSET 0.000000 -0.000003 18.723801
			CHANNELS 3 Xrotation Yrotation Zrotation
			JOINT RightLeg
			{
				OFFSET 0.000000 0.000004 -23.186600
				CHANNELS 3 Xrotation Yrotation Zrotation
				JOINT RightLegRoll
				{
					OFFSET 0.000000 -0.000004 23.262398
					CHANNELS 3 Xrotation Yrotation Zrotation
					JOINT RightFoot
					{
						OFFSET 0.000000 -0.000003 19.362099
						CHANNELS 3 Xrotation Yrotation Zrotation
						JOINT RightToeBase
						{
							OFFSET 0.000000 -0.000003 16.185699
							CHANNELS 3 Xrotation Yrotation Zrotation
							End Site
							{
								OFFSET 0.006859 0.903521 7.838623
							}
						}
					}
				}
			}
		}
	}
	JOINT LeftUpLeg
	{
		OFFSET 7.208340 1.108840 -1.321823
		CHANNELS 3 Xrotation Yrotation Zrotation
		JOINT LeftUpLegRoll
		{
			OFFSET 0.000000 -0.000003 18.723900
			CHANNELS 3 Xrotation Yrotation Zrotation
			JOINT LeftLeg
			{
				OFFSET 0.000000 -0.000004 23.186501
				CHANNELS 3 Xrotation Yrotation Zrotation
				JOINT LeftLegRoll
				{
					OFFSET 0.000000 -0.000004 23.477493
					CHANNELS 3 Xrotation Yrotation Zrotation
					JOINT LeftFoot
					{
						OFFSET 0.000000 -0.000003 19.147003
						CHANNELS 3 Xrotation Yrotation Zrotation
						JOINT LeftToeBase
						{
							OFFSET 0.000000 -0.000003 16.185699
							CHANNELS 3 Xrotation Yrotation Zrotation
							End Site
							{
								OFFSET -0.030746 0.903520 7.838623
							}
						}
					}
				}
			}
		}
	}
}
MOTION
Frames: 10
Frame Time: 0.041667
54.851696 -6.397797 96.118896 -3.922000 0.776818 -0.001436 -1.332566 -0.465621 0.032123 1.353010 -0.934787 0.048221 2.998170 -0.933957 0.059479 13.568326 2.070171 -11.981595 2.496240 -7.457627 -11.269005 -17.478695 -57.755021 -20.646552 -42.501323 -117.685362 -19.704157 0.000004 0.000000 -0.000000 2.066290 -6.945527 -0.530407 0.000009 0.000006 -3.000679 -5.000213 -7.999122 0.000118 -16.219532 62.721108 19.229858 -45.525547 114.278251 34.702607 -0.000005 0.000003 0.000006 0.072150 9.326886 0.859840 0.000005 -0.000001 3.011940 -5.000212 7.998853 -0.000145 -2.599849 -172.292847 3.544267 -179.999991 0.000005 -0.987996 168.082650 -1.082161 -0.654369 0.000003 -0.000002 0.109047 70.076416 6.365075 3.469374 25.456955 -7.355614 0.000000 -0.793462 171.839759 -2.749255 -0.000021 -0.000004 -0.947994 -12.348848 1.559747 0.742513 0.000002 -0.000004 -0.100247 71.409430 -6.067348 -4.230159 25.459183 7.355625 -0.003423 
54.852295 -6.400511 96.115997 -3.928778 0.773587 -0.002538 -1.331004 -0.465620 0.032143 1.355040 -0.934473 0.050455 3.000199 -0.933629 0.061704 13.559887 2.066287 -11.987737 2.496484 -7.456238 -11.275438 -17.496050 -57.754898 -20.667239 -42.520943 -117.681742 -19.725054 0.000004 -0.000000 0.000000 2.068578 -6.945637 -0.530418 0.000008 0.000005 -3.000679 -5.000215 -7.999122 0.000119 -16.217661 62.726859 19.227773 -45.553861 114.277323 34.731765 -0.000006 0.000003 0.000006 0.072150 9.326216 0.859345 0.000002 -0.000001 3.011939 -5.000215 7.998852 -0.000146 -2.592298 -172.287820 3.547946 -179.999991 0.000005 -0.987995 168.081434 -1.082156 -0.654391 0.000003 -0.000002 0.109048 70.076730 6.364721 3.470597 25.456953 -7.355615 -0.000000 -0.781544 171.843748 -2.749431 -0.000020 -0.000004 -0.947994 -12.343547 1.560012 0.742523 0.000003 -0.000004 -0.100247 71.409382 -6.067537 -4.229292 25.459180 7.355625 -0.003423 
54.856697 -6.402340 96.118210 -3.936054 0.770221 -0.003807 -1.329323 -0.465621 0.032160 1.357271 -0.934168 0.052803 3.002439 -0.933311 0.064042 13.551351 2.062823 -11.993974 2.496861 -7.455194 -11.281826 -17.513766 -57.754215 -20.688339 -42.539600 -117.679009 -19.745488 0.000002 -0.000000 0.000001 2.070918 -6.946176 -0.530437 0.000008 0.000005 -3.000679 -5.000214 -7.999122 0.000118 -16.215740 62.732924 19.225647 -45.583593 114.275635 34.762695 -0.000004 0.000003 0.000005 0.072152 9.325635 0.858767 0.000002 -0.000001 3.011940 -5.000213 7.998854 -0.000145 -2.584231 -172.283763 3.551900 -179.999991 0.000005 -0.987995 168.080232 -1.083140 -0.654623 0.000003 -0.000002 0.109047 70.077037 6.364366 3.471815 25.456955 -7.355614 -0.000000 -0.768872 171.847723 -2.749652 -0.000020 -0.000003 -0.947994 -12.338047 1.560310 0.742542 0.000003 -0.000005 -0.100247 71.409334 -6.067728 -4.228427 25.459182 7.355623 -0.003423 
54.856995 -6.401507 96.122307 -3.943684 0.766760 -0.005193 -1.327565 -0.465621 0.032173 1.359660 -0.933869 0.055231 3.004819 -0.933000 0.066460 13.542717 2.059651 -12.000282 2.497330 -7.454414 -11.288400 -17.531740 -57.753190 -20.709753 -42.558280 -117.676264 -19.766540 0.000002 0.000000 0.000001 2.073287 -6.947016 -0.530457 0.000009 0.000007 -3.000678 -5.000215 -7.999121 0.000116 -16.213763 62.739092 19.223444 -45.611727 114.274659 34.791983 -0.000005 0.000002 0.000005 0.072151 9.325127 0.858133 0.000004 -0.000001 3.011939 -5.000212 7.998853 -0.000146 -2.575815 -172.278722 3.555967 -179.999991 0.000005 -0.987996 168.078934 -1.084111 -0.654853 0.000003 -0.000002 0.109048 70.077461 6.364014 3.473030 25.456953 -7.355613 -0.000000 -0.755673 171.851712 -2.749906 -0.000020 -0.000004 -0.947994 -12.332248 1.560608 0.742561 0.000003 -0.000004 -0.100247 71.409293 -6.067916 -4.227560 25.459178 7.355623 -0.003423 
54.850197 -6.405112 96.121201 -3.951512 0.763247 -0.006647 -1.325748 -0.465621 0.032185 1.362121 -0.933575 0.057704 3.007289 -0.932692 0.068922 13.534088 2.056642 -12.006630 2.497851 -7.453761 -11.294964 -17.549876 -57.751941 -20.731357 -42.577111 -117.673600 -19.788030 0.000004 0.000000 -0.000001 2.075692 -6.948035 -0.530480 0.000007 0.000005 -3.000679 -5.000214 -7.999121 0.000117 -16.211821 62.745478 19.221283 -45.641465 114.272972 34.823108 -0.000005 0.000003 0.000007 0.072147 9.324644 0.857466 0.000004 -0.000001 3.011941 -5.000215 7.998854 -0.000145 -2.567200 -172.273668 3.560133 -179.999991 0.000005 -0.987996 168.077637 -1.084107 -0.653882 0.000003 -0.000002 0.109048 70.077857 6.363629 3.474338 25.456955 -7.355616 0.000000 -0.742173 171.855687 -2.750171 -0.000020 -0.000005 -0.947994 -12.326447 1.560917 0.742583 0.000003 -0.000005 -0.100247 71.409252 -6.068139 -4.226600 25.459180 7.355624 -0.003424 
54.848198 -6.407180 96.119705 -3.959380 0.759719 -0.008119 -1.323925 -0.465621 0.032195 1.364612 -0.933281 0.060188 3.009780 -0.932384 0.071396 13.525354 2.053674 -12.012986 2.498388 -7.453149 -11.301522 -17.568070 -57.750656 -20.753028 -42.594494 -117.671592 -19.808028 0.000004 -0.000002 -0.000002 2.078104 -6.949103 -0.530502 0.000010 0.000004 -3.000680 -5.000212 -7.999123 0.000118 -16.209845 62.751858 19.219085 -45.671020 114.271244 34.854063 -0.000003 0.000002 0.000007 0.072150 9.324176 0.856795 0.000004 -0.000001 3.011941 -5.000213 7.998855 -0.000146 -2.558525 -172.269624 3.564373 -179.999991 0.000007 -0.987996 168.076434 -1.085078 -0.654111 0.000003 -0.000002 0.109047 70.078185 6.363308 3.475664 25.456953 -7.355616 0.000001 -0.728591 171.859649 -2.750436 -0.000021 -0.000004 -0.947994 -12.320647 1.561234 0.742611 0.000003 -0.000004 -0.100247 71.409218 -6.068361 -4.225637 25.459177 7.355624 -0.003423 
54.850895 -6.408100 96.121399 -3.967157 0.756219 -0.009559 -1.322115 -0.465621 0.032207 1.367052 -0.932987 0.062650 3.012219 -0.932076 0.073848 13.516622 2.050627 -12.019325 2.498895 -7.452467 -11.308082 -17.586170 -57.749502 -20.774601 -42.613332 -117.668928 -19.829528 0.000003 -0.000001 0.000000 2.080497 -6.950072 -0.530527 0.000007 0.000004 -3.000681 -5.000215 -7.999121 0.000117 -16.207926 62.758230 19.216958 -45.700755 114.269584 34.885164 -0.000004 0.000002 0.000005 0.072152 9.323696 0.856134 0.000003 -0.000001 3.011940 -5.000211 7.998853 -0.000146 -2.549955 -172.264584 3.568515 -179.999991 0.000006 -0.987995 168.075123 -1.086049 -0.654340 0.000003 -0.000002 0.109048 70.078601 6.362924 3.476973 25.456957 -7.355613 0.000000 -0.715162 171.864621 -2.750709 -0.000019 -0.000005 -0.947994 -12.314848 1.561542 0.742633 0.000003 -0.000005 -0.100247 71.409177 -6.068549 -4.224671 25.459178 7.355623 -0.003423 
54.852196 -6.411367 96.119591 -3.974684 0.752787 -0.010916 -1.320377 -0.465621 0.032222 1.369401 -0.932685 0.065055 3.014559 -0.931761 0.076242 13.507989 2.047377 -12.025618 2.499341 -7.451614 -11.314561 -17.604080 -57.748573 -20.795940 -42.632009 -117.666210 -19.850386 0.000004 -0.000000 0.000002 2.082867 -6.950832 -0.530543 0.000008 0.000005 -3.000680 -5.000211 -7.999122 0.000117 -16.205968 62.764398 19.214779 -45.730507 114.267917 34.916204 -0.000004 0.000002 0.000007 0.072148 9.323164 0.855516 0.000003 -0.000001 3.011940 -5.000212 7.998854 -0.000146 -2.541642 -172.259529 3.572554 -179.999991 0.000006 -0.987995 168.073825 -1.086042 -0.654366 0.000003 -0.000002 0.109048 70.078909 6.362569 3.478291 25.456955 -7.355615 -0.000000 -0.702116 171.868597 -2.750944 -0.000020 -0.000005 -0.947994 -12.309146 1.561840 0.742651 0.000003 -0.000005 -0.100247 71.409136 -6.068769 -4.223708 25.459180 7.355625 -0.003424 
54.845398 -6.412867 96.119797 -3.981810 0.749464 -0.012140 -1.318732 -0.465621 0.032239 1.371572 -0.932376 0.067368 3.016740 -0.931439 0.078547 13.499552 2.043802 -12.031842 2.499680 -7.450475 -11.320969 -17.621659 -57.747993 -20.816895 -42.650529 -117.663409 -19.870514 0.000002 -0.000000 -0.000000 2.085182 -6.951253 -0.530560 0.000009 0.000005 -3.000679 -5.000215 -7.999121 0.000117 -16.204077 62.770367 19.212673 -45.758658 114.266968 34.945338 -0.000004 0.000003 0.000007 0.072150 9.322558 0.854965 0.000002 -0.000002 3.011939 -5.000214 7.998853 -0.000145 -2.533719 -172.255486 3.576445 -179.999991 0.000007 -0.987995 168.072623 -1.087012 -0.654595 0.000003 -0.000003 0.109048 70.079223 6.362246 3.479417 25.456952 -7.355615 0.000000 -0.689671 171.871588 -2.751129 -0.000020 -0.000004 -0.947994 -12.303744 1.562126 0.742668 0.000002 -0.000005 -0.100247 71.409088 -6.068961 -4.222842 25.459178 7.355625 -0.003424 
54.843895 -6.412166 96.115990 -3.988391 0.746290 -0.013181 -1.317225 -0.465621 0.032262 1.373523 -0.932055 0.069557 3.018689 -0.931105 0.080726 13.491212 2.039770 -12.037861 2.499871 -7.448944 -11.327409 -17.638812 -57.747993 -20.837340 -42.670166 -117.659830 -19.891131 0.000001 -0.000000 0.000001 2.087441 -6.951182 -0.530568 0.000006 0.000005 -3.000679 -5.000211 -7.999123 0.000116 -16.202160 62.775920 19.210530 -45.786996 114.266087 34.974496 -0.000004 0.000002 0.000006 0.072150 9.321846 0.854501 0.000003 -0.000001 3.011939 -5.000212 7.998854 -0.000146 -2.526375 -172.250445 3.580037 -179.999991 0.000005 -0.987995 168.071421 -1.087009 -0.654616 0.000003 -0.000002 0.109047 70.079530 6.361857 3.480632 25.456957 -7.355614 0.000000 -0.678064 171.875577 -2.751277 -0.000020 -0.000005 -0.947994 -12.298546 1.562391 0.742677 0.000004 -0.000005 -0.100247 71.409047 -6.069149 -4.222074 25.459177 7.355625 -0.003423 
